# xmcd
#
# Track frame offsets:
#	150
#	13542
#	30597
#	43672
#	60950
#	72145
#	89547
#	104642
#	116430
#	125512
#	137247
#
# Disc length: 2073 seconds
#
# Revision: 1
# Processed by: cddbd v1.5.1PL0 Copyright (c) Steve Scherf et al.
# Submitted via: audiograbber 1.83.01
#
DISCID=9208170b
DTITLE=Varios - Four Roses Bourbon
DYEAR=1900
DGENRE=Country
TTITLE0=Kenny Rogers - Ruby don't take your love to town
TTITLE1=David Speegle - Dim lights and candles
TTITLE2=Bob Wills - Faded love
TTITLE3=The Wilsons - Every oad leads back to you
TTITLE4=Kingston Trio - Tom Dooley
TTITLE5=Billie Davis - Albert Lee - I don't know what love is
TTITLE6=Anne Murray  - There goes my everything
TTITLE7=Willie Nelson - Touch me
TTITLE8=Frankie Laine - Raw hide
TTITLE9=Patsy Cline - Walking after midnight
TTITLE10=Alan Borders - Waycross Georgia blues
EXTD=
EXTT0=
EXTT1=
EXTT2=
EXTT3=
EXTT4=
EXTT5=
EXTT6=
EXTT7=
EXTT8=
EXTT9=
EXTT10=
PLAYORDER=
